<?xml version="1.0" encoding="utf-8"?>
<!-- Generator: Adobe Illustrator 24.3.0, SVG Export Plug-In . SVG Version: 6.00 Build 0)  -->
<svg version="1.1" id="Layer_1" xmlns="http://www.w3.org/2000/svg" xmlns:xlink="http://www.w3.org/1999/xlink" x="0px" y="0px"
	 viewBox="0 0 720 720" style="enable-background:new 0 0 720 720;" xml:space="preserve">
<style type="text/css">
	.st0{fill:none;stroke:#000000;stroke-miterlimit:10;}
</style>
<g>
	<g>
		<path class="st0" d="M646.5,453.9c5.55-0.6,4.29-2.08,7-5c-1.03-5.01-3.58-4.69-6-8h-13v5c-2.74-1.88-4.14-4.23-5-8
			c-2.05,0.4-1.93,0.25-3,1c-3.17-0.57-2.91-0.88-5-2c0.21-8.43,4.34-8.59,6-14c-0.67-1-1.33-2-2-3c-0.36-5.71,5.51-10.77,9-13
			c0.27-4.18,0.15-3.35,0-8c-1.87-1.65-5.24-3.18-7-5c-3.69-3.82-5.65-9.92-10-13c-2.27-1.61-5.36-0.26-8-2c-1.69-1.11,0.1-3.19-1-5
			c-0.7-1.16-3.04-1.93-4-3c-1.09-1.57,2.24-7.44,0-12c4.7-2,5.74-3.72,8-8c1.76-1.12-1.53-3.05-3-4c1.24-3.64,4.03-6.15,7-8
			c-0.36-3.75-0.78-3.72-2-6c-8.48-0.13-15.66-0.67-23,1h-13c-1.72,0.58-3.94,3.46-6,4c-7.33-0.67-14.67-1.33-22-2
			c-8.42-2.91-26.07-23.47-29-32c0.33-2,0.67-4,1-6c-1.64-4.18-6.31-10.07-8-15c-1.33-3.88-0.23-12.66-2-16h-2
			c-1.6-2.43-1.19-4.71-3-7c-1-0.33-2-0.67-3-1c-2.5-3.65-1.33-7.26-4-12c-6.86,0.76-6.65,3.73-14,4c-0.02-2.73-0.04-4.58-1-6
			c-0.77-0.69-2.23-1.32-3-2c-4.92,0.67-8.73,2.67-11,6c-5.99-0.06-8.58-1.43-10-6c-2.47,0.53-15.78,4.79-16,5
			c-4.25-0.21-13.53-3.92-16-6c-0.33-1-0.67-2-1-3c-3.32-1.92-5.3,1.54-8,0c-0.65-0.37-1.07-3.55-2-4h-6c-1.65-0.7-4.58-3.33-7-4h-7
			c-1-1.33-2-2.67-3-4h-1c-1.92,2.17-4.44-0.4-7-1v-3c-7.63,0.4-13.16,4.55-16,0h-3c1.39,3.06,4.24,7.58,2,11c0.6,5.09,4.82,7.8,9,9
			c0.21,11.06-1.92,15.55-5,20v2c-1.92-0.94-1.63-2.31-3-5c-2.65,0.93-2.6,0.99-4,3c-0.79-1.04-1.53-3.7-2-5
			c-0.67-0.33-1.33-0.67-2-1v1h-1c0.13,3.85-0.02,4.26,2,6c-1.51,2.88-2.87,2.33-4,6c-2.49-1.47-1.17,0.25-2-3
			c-8.67,1.66-5.45,9.71-10,15v1h-2v-12c0.8-1.45,2.64-0.04,4-1c2.86-2.01,3.85-6.17,6-9c2.33-1.67,4.67-3.33,7-5
			c1.91-2.16,4.05-6.99,2-10c-0.12-6.18-2.03-7.87-7-9v-1h-1v1c-11.57,0.73-6.82,10.73-10,17c-0.2,4.17-0.7,4.58-2,7h-4
			c-0.05,12-4.45,21-9,29c-4.57-0.05-8.44,0.1-11,2h-1c0.74-2.32,1.04-2.23,2-4h3c0.57-10.96,7.21-13.98,7-23
			c-8.69,1.17-10.42,5.35-17,8c-3.33,0.33-6.67,0.67-10,1c-3.63,2.11-5.47,7.5-9,10c0.78,3.92,1.07,3.53,4,5
			c-0.4,2.05-0.25,1.93-1,3c-1.61,0.96-0.09,0.06-3,0c-1.42,8.42-1.48,16.69-7,22c-1.67,1.14-4.91,1.09-8,1
			c-0.09,3.65-1.25,1.62,1,4c-5.09,7.23-12.57,4.32-19,9c-0.84,0.61-1.01,3.32-2,4c-4.92,3.38-10.03,3.44-16,6
			c-3.95,1.69-7.57,5.51-12,7c-10.67,2.33-21.33,4.67-32,7c-13.33,5.61-23.99,16.08-35,24c-3.36,2.41-8.37,3.92-11,7
			c-4.74,5.55-8.23,13.6-14,18c-18,13.73-35.41,26.46-55,39c-6.17,3.95-6.95,9.12-15,12v4h-5c1.3,2.38,3.55,2.97,6,4
			c2.22-4.23,5.58-6.1,8-10c3.64,1.24,6.15,4.03,8,7c17.82,0.11,29.79-4.41,43-9c1,0.33,2,0.67,3,1c4.47-1.51,8.74-6.29,13-8
			c10.03,2.67,10.73-4.26,17-7c3.69-1.62,5.51,0.09,8-2c3.46,0.71,5.71,2.14,7,5c2.22,5.91-6.09,10.61-8,15v9
			c-0.47,1.07-3.9,5.56-5,7v3c7.42-1.66,12.83-4.76,19-7c0.55,1.52,0.71,1.67,1,4c4.4,0.76,11.68,3.83,14,7
			c6.84-0.39,6.99-2.86,11-5c11.2,4.54,34.45-13.2,39-20c10.11-0.38,22.59,1.55,32-2c7.23-2.73,12.54-11.49,19-14
			c2.95-1.15,8.82,0.44,13-2c3.1-1.81,2.86-6.12,5-9c3.58-4.84,11.95-6.95,16-13c2.6,1.65,1.5,4.52,3,7c1.33,3.32,4.35,4.25,8,5v9h3
			c0.92,1.08-0.08,0.09,1,1c1.43,8.23-3.94,16.84,0,23v2h2c1.15-1.93,2.23-3.66,4-5v-4c4.88-0.4,6.96-1.9,9-5h1
			c-0.4,2.05-0.25,1.93-1,3v3c3.15-2.09,5.65-5,10-6c2.39-0.55,26.98,4.99,28,6c0.98,0.97-0.22,3.18,1,4c2.16,1.45,8.85,3.03,10,5
			c1.41,2.41-0.3,5.94,1,8c0.91,1.45,10,6.53,6,9c0.33,0.67,0.67,1.33,1,2c1.67,1.5,4.92,0.96,6,3c1.42,2.68,1.22,7.05,2,9
			c11.85,0.06,19.53-0.89,27-4c2.66,3.07,5.81,6.58,8,10c5.18-0.16,6.02-0.88,8-4c3.57,1.21,7.97,3.89,11,6
			c7.04-10.8,14.58-11.14,25-18c2.83-1.86,6.87-6.94,10-8c3,0.33,6,0.67,9,1c3.06-0.74,8.16-3.24,11-4c10.33,0.67,20.67,1.33,31,2
			c5.84-1.82,12.28-7.08,18-9c5.11-1.71,10.99,0.41,15-2h5c-2.02,5.7-11.49,22.73-5,30v2c8.36-0.18,18.93,5.74,24-1
			c9.36,0.02,6.74,3.93,10,7c1.06,0.92,4.81-1.73,9-2v-1h1c-0.4-2.05-0.25-1.93-1-3v-2c-1.77,0.98-1.65,1.29-4,2
			c-1.87-3.89-4.59-4.98-6-9c5.17-5.54,5.83-10.03,13-14c-0.43-4.92-1.85-6.06-5-8v-1h-1c-0.87,2.15-1.65,5.27-3,7
			c-1.08,0.76-0.92,0.63-3,1c0.74-6.08,2.94-7.22,2-13c1.25-0.67,2.07-1.09,3-2C646.06,452.36,645.03,451.38,646.5,453.9z
			 M167.5,428.9h-1v1h-1c-0.33-1-0.67-2-1-3c1.73,0.65,0.98,0.2,2,1h1V428.9z M196.5,424.9c-1.02,1.72-0.03,0,0,2
			c-1.08,0.92-0.09-0.08-1,1c-2.74-1.37-1.18-2.16-2-5C194.75,423.57,195.57,423.99,196.5,424.9z M188.5,424.9
			c-2.52-0.66-0.54-0.29-3,0c-0.33-1-0.67-2-1-3C188.51,423.5,186.66,421.08,188.5,424.9z M183.5,427.9c3.85,0.69,3.93,1.19,7,1
			c-0.23,2.32-0.2,2.82-1,4c-0.59-0.79-2.61-2.42-6-3V427.9z M182.5,435.9c-0.4-2.05-0.25-1.93-1-3v-1c2.05,0.4,1.93,0.25,3,1
			c0.76,1.08,0.63,0.92,1,3H182.5z M183.5,443.9c-3.65-2.16-1.25,0.52-3-3C180.94,441.31,184.12,442.83,183.5,443.9z M179.5,426.9
			v-2h2v2H179.5z M193.5,444.9c-2,0.33-4,0.67-6,1v4c-3.86,0.1-5.08,0.23-7,2h-1c1.78-3.66,8.29-8.21,12-10c0.88,1.18,0.81,1.13,2,2
			V444.9z M196.5,435.9h-7v-1c1.25-0.67,2.07-1.09,3-2h6c-0.55,1.52-0.71,1.67-1,4C196.42,435.99,197.41,436.99,196.5,435.9z
			 M202.5,441.9c-0.67,0.33-1.33,0.67-2,1c-0.92,1.08,0.08,0.09-1,1c-0.33-0.67-0.67-1.33-1-2c-0.96-1.61-0.06-0.09,0-3
			c2.41,0.93,1.58,1.09,4,2V441.9z M207.5,426.9v1c-0.67-0.33-1.33-0.67-2-1v1h-2c0.73-3.41,1.31-5.72,1-8c1.52,0.55,1.67,0.71,4,1
			C208.05,423.35,207.8,426.15,207.5,426.9z M389.5,236.9c6.58,0.28,8.13,1.94,15,2v1h1c-0.33,1.67-0.67,3.33-1,5
			c-1.73-0.65-0.98-0.2-2-1h-1v5c-2.32-0.23-2.82-0.2-4-1c-7.7-0.49-10.92-0.59-11,7h-1v-1h-2c0.14-3.01,0.74-2.78,0-4
			C383.34,240.47,385.9,241.66,389.5,236.9z M386.5,229.9v1h-3c-0.33-1-0.67-2-1-3C385.63,228.62,384.6,228.56,386.5,229.9z
			 M303.5,298.9c3-0.33,6-0.67,9-1c-0.57,3.17-0.88,2.91-2,5c-2.33-0.33-4.67-0.67-7-1V298.9z M336.5,325.9
			c-3.33,0.33-6.67,0.67-10,1c-3.95,1.94-6.96,5.7-12,7c0.2,2.6,0.44,3.4,1,5c-3.53,1.44-8.33,2.59-11,5c-2.6-0.2-3.4-0.44-5-1
			c0.57-4.88,2.01-5.11,1-9c7.42-3.47,14.88-9.35,22-12c2.74-1.02,4.9,0.31,7-1c1.33-1.67,2.67-3.33,4-5c4.87-2.67,11.72-2.83,15-7
			h2c-0.33,1.67-0.67,3.33-1,5c-2.05,0.4-1.93,0.25-3,1c-4.02,1.74-2.57,2.03-2,6C341.92,322.17,338.63,325.02,336.5,325.9z
			 M387.5,392.9c0.63,2.23,0.74,2.64,2,4c-2.77,6.87-5.5,1.88-10,5c-5.22,3.61-1.74,8.8-12,10c0.4,2.05,0.25,1.93,1,3
			c-1.65,5.55-8.78,6.46-11,11c-1.46,2.98-0.92,5.92-2,8h-2c-0.99-1.9-1.38-2.75-3-4c0.52-5.2,3.05-7.38,6-10v-8
			c-2.48,1.64-3.65,3.21-5,6h-1c1.08,0.76,0.92,0.63,3,1c-0.88,2.36-0.38,1.65-2,3v1c-4.14-1.48-6.01-3.91-11-5
			c-0.3-3.19-0.89-3.2,0-5c0.48-9.08,4.99-5.39,9-10c2.94-3.39,4.23-8.53,8-11c6.99-4.58,34.79-14.16,45-6c2.29,1.03,2.17,1.71,4,3
			C403.79,393.84,394.47,392.42,387.5,392.9z M416.5,248.9c-5.43,0.12-6.57-0.12-9,0c0.59-3.67-0.04-6.56,1-10
			c3.56,1.77,5.27,6.32,8,9V248.9z M461.5,261.9v1c-2.88-0.88-2.56-1.46-6-2v-1c2.23-0.63,2.64-0.74,4-2c1,0.33,2,0.67,3,1
			C462.1,260.96,462.25,260.83,461.5,261.9z M485.5,491.9c-2.05-0.4-1.93-0.25-3-1c-0.66-0.86-1.35-3.14-2-4
			c0.57-3.17,0.88-2.91,2-5c2.74,1.76,1.44,5.34,3,8V491.9z M536.5,358.9c0.4-2.05,0.25-1.93,1-3c1.31-3.28,2.8-2.91,5-5
			c5.11,0.12,12.87,0.56,16,3h2C557.65,361.92,547.03,359.33,536.5,358.9z M640.5,448.9c-0.37-3.34-0.27-1.67,0-5
			c2.61,0.8,2.37,1.24,5,2v1c-2.23,0.63-2.64,0.74-4,2H640.5z"/>
	</g>
</g>
</svg>
